%FSLAX34Y34*%
%MOMM*%
%LNSILK_BOTTOM*%
G71*
G01*
%ADD10C, 0.20*%
%LPD*%
G54D10*
X598350Y681250D02*
X604750Y681250D01*
X611050Y687550D01*
X611050Y700350D01*
X604750Y706650D01*
X591950Y706650D01*
X585650Y700350D01*
X585650Y687550D01*
X591950Y681250D01*
X598350Y681250D01*
G54D10*
X572950Y681250D02*
X579350Y681250D01*
X585650Y687550D01*
X585650Y700350D01*
X579350Y706650D01*
X566550Y706650D01*
X560250Y700350D01*
X560250Y687550D01*
X566550Y681250D01*
X572950Y681250D01*
G54D10*
X598350Y655850D02*
X604750Y655850D01*
X611050Y662150D01*
X611050Y674950D01*
X604750Y681250D01*
X591950Y681250D01*
X585650Y674950D01*
X585650Y662150D01*
X591950Y655850D01*
X598350Y655850D01*
G54D10*
X572950Y655850D02*
X579350Y655850D01*
X585650Y662150D01*
X585650Y674950D01*
X579350Y681250D01*
X566550Y681250D01*
X560250Y674950D01*
X560250Y662150D01*
X566550Y655850D01*
X572950Y655850D01*
G54D10*
X598350Y630450D02*
X604750Y630450D01*
X611050Y636750D01*
X611050Y649550D01*
X604750Y655850D01*
X591950Y655850D01*
X585650Y649550D01*
X585650Y636750D01*
X591950Y630450D01*
X598350Y630450D01*
G54D10*
X572950Y630450D02*
X579350Y630450D01*
X585650Y636750D01*
X585650Y649550D01*
X579350Y655850D01*
X566550Y655850D01*
X560250Y649550D01*
X560250Y636750D01*
X566550Y630450D01*
X572950Y630450D01*
G54D10*
X598350Y605050D02*
X604750Y605050D01*
X611050Y611350D01*
X611050Y624150D01*
X604750Y630450D01*
X591950Y630450D01*
X585650Y624150D01*
X585650Y611350D01*
X591950Y605050D01*
X598350Y605050D01*
G54D10*
X572950Y605050D02*
X579350Y605050D01*
X585650Y611350D01*
X585650Y624150D01*
X579350Y630450D01*
X566550Y630450D01*
X560250Y624150D01*
X560250Y611350D01*
X566550Y605050D01*
X572950Y605050D01*
G54D10*
X598350Y579650D02*
X604750Y579650D01*
X611050Y585950D01*
X611050Y598750D01*
X604750Y605050D01*
X591950Y605050D01*
X585650Y598750D01*
X585650Y585950D01*
X591950Y579650D01*
X598350Y579650D01*
G54D10*
X572950Y579650D02*
X579350Y579650D01*
X585650Y585950D01*
X585650Y598750D01*
X579350Y605050D01*
X566550Y605050D01*
X560250Y598750D01*
X560250Y585950D01*
X566550Y579650D01*
X572950Y579650D01*
G54D10*
X598350Y554250D02*
X604750Y554250D01*
X611050Y560550D01*
X611050Y573350D01*
X604750Y579650D01*
X591950Y579650D01*
X585650Y573350D01*
X585650Y560550D01*
X591950Y554250D01*
X598350Y554250D01*
G54D10*
X572950Y554250D02*
X579350Y554250D01*
X585650Y560550D01*
X585650Y573350D01*
X579350Y579650D01*
X566550Y579650D01*
X560250Y573350D01*
X560250Y560550D01*
X566550Y554250D01*
X572950Y554250D01*
G54D10*
X598350Y528750D02*
X604750Y528750D01*
X611050Y535050D01*
X611050Y547850D01*
X604750Y554150D01*
X591950Y554150D01*
X585650Y547850D01*
X585650Y535050D01*
X591950Y528750D01*
X598350Y528750D01*
G54D10*
X572950Y528750D02*
X579350Y528750D01*
X585650Y535050D01*
X585650Y547850D01*
X579350Y554150D01*
X566550Y554150D01*
X560250Y547850D01*
X560250Y535050D01*
X566550Y528750D01*
X572950Y528750D01*
G54D10*
X598350Y503350D02*
X604750Y503350D01*
X611050Y509650D01*
X611050Y522450D01*
X604750Y528750D01*
X591950Y528750D01*
X585650Y522450D01*
X585650Y509650D01*
X591950Y503350D01*
X598350Y503350D01*
G54D10*
X572950Y503350D02*
X579350Y503350D01*
X585650Y509650D01*
X585650Y522450D01*
X579350Y528750D01*
X566550Y528750D01*
X560250Y522450D01*
X560250Y509650D01*
X566550Y503350D01*
X572950Y503350D01*
G54D10*
X598350Y477950D02*
X604750Y477950D01*
X611050Y484250D01*
X611050Y497050D01*
X604750Y503350D01*
X591950Y503350D01*
X585650Y497050D01*
X585650Y484250D01*
X591950Y477950D01*
X598350Y477950D01*
G54D10*
X572950Y477950D02*
X579350Y477950D01*
X585650Y484250D01*
X585650Y497050D01*
X579350Y503350D01*
X566550Y503350D01*
X560250Y497050D01*
X560250Y484250D01*
X566550Y477950D01*
X572950Y477950D01*
G54D10*
X598350Y883350D02*
X604750Y883350D01*
X611050Y889650D01*
X611050Y902450D01*
X604750Y908750D01*
X591950Y908750D01*
X585650Y902450D01*
X585650Y889650D01*
X591950Y883350D01*
X598350Y883350D01*
G54D10*
X572950Y883350D02*
X579350Y883350D01*
X585650Y889650D01*
X585650Y902450D01*
X579350Y908750D01*
X566550Y908750D01*
X560250Y902450D01*
X560250Y889650D01*
X566550Y883350D01*
X572950Y883350D01*
G54D10*
X598350Y857950D02*
X604750Y857950D01*
X611050Y864250D01*
X611050Y877050D01*
X604750Y883350D01*
X591950Y883350D01*
X585650Y877050D01*
X585650Y864250D01*
X591950Y857950D01*
X598350Y857950D01*
G54D10*
X572950Y857950D02*
X579350Y857950D01*
X585650Y864250D01*
X585650Y877050D01*
X579350Y883350D01*
X566550Y883350D01*
X560250Y877050D01*
X560250Y864250D01*
X566550Y857950D01*
X572950Y857950D01*
G54D10*
X598350Y832550D02*
X604750Y832550D01*
X611050Y838850D01*
X611050Y851650D01*
X604750Y857950D01*
X591950Y857950D01*
X585650Y851650D01*
X585650Y838850D01*
X591950Y832550D01*
X598350Y832550D01*
G54D10*
X572950Y832550D02*
X579350Y832550D01*
X585650Y838850D01*
X585650Y851650D01*
X579350Y857950D01*
X566550Y857950D01*
X560250Y851650D01*
X560250Y838850D01*
X566550Y832550D01*
X572950Y832550D01*
G54D10*
X598350Y807150D02*
X604750Y807150D01*
X611050Y813450D01*
X611050Y826250D01*
X604750Y832550D01*
X591950Y832550D01*
X585650Y826250D01*
X585650Y813450D01*
X591950Y807150D01*
X598350Y807150D01*
G54D10*
X572950Y807150D02*
X579350Y807150D01*
X585650Y813450D01*
X585650Y826250D01*
X579350Y832550D01*
X566550Y832550D01*
X560250Y826250D01*
X560250Y813450D01*
X566550Y807150D01*
X572950Y807150D01*
G54D10*
X598350Y781750D02*
X604750Y781750D01*
X611050Y788050D01*
X611050Y800850D01*
X604750Y807150D01*
X591950Y807150D01*
X585650Y800850D01*
X585650Y788050D01*
X591950Y781750D01*
X598350Y781750D01*
G54D10*
X572950Y781750D02*
X579350Y781750D01*
X585650Y788050D01*
X585650Y800850D01*
X579350Y807150D01*
X566550Y807150D01*
X560250Y800850D01*
X560250Y788050D01*
X566550Y781750D01*
X572950Y781750D01*
G54D10*
X598350Y756250D02*
X604750Y756250D01*
X611050Y762550D01*
X611050Y775350D01*
X604750Y781650D01*
X591950Y781650D01*
X585650Y775350D01*
X585650Y762550D01*
X591950Y756250D01*
X598350Y756250D01*
G54D10*
X572950Y756250D02*
X579350Y756250D01*
X585650Y762550D01*
X585650Y775350D01*
X579350Y781650D01*
X566550Y781650D01*
X560250Y775350D01*
X560250Y762550D01*
X566550Y756250D01*
X572950Y756250D01*
G54D10*
X598350Y730850D02*
X604750Y730850D01*
X611050Y737150D01*
X611050Y749950D01*
X604750Y756250D01*
X591950Y756250D01*
X585650Y749950D01*
X585650Y737150D01*
X591950Y730850D01*
X598350Y730850D01*
G54D10*
X572950Y730850D02*
X579350Y730850D01*
X585650Y737150D01*
X585650Y749950D01*
X579350Y756250D01*
X566550Y756250D01*
X560250Y749950D01*
X560250Y737150D01*
X566550Y730850D01*
X572950Y730850D01*
G54D10*
X598350Y705450D02*
X604750Y705450D01*
X611050Y711750D01*
X611050Y724550D01*
X604750Y730850D01*
X591950Y730850D01*
X585650Y724550D01*
X585650Y711750D01*
X591950Y705450D01*
X598350Y705450D01*
G54D10*
X572950Y705450D02*
X579350Y705450D01*
X585650Y711750D01*
X585650Y724550D01*
X579350Y730850D01*
X566550Y730850D01*
X560250Y724550D01*
X560250Y711750D01*
X566550Y705450D01*
X572950Y705450D01*
G54D10*
X598350Y961150D02*
X604750Y961150D01*
X611050Y967450D01*
X611050Y980250D01*
X604750Y986550D01*
X591950Y986550D01*
X585650Y980250D01*
X585650Y967450D01*
X591950Y961150D01*
X598350Y961150D01*
G54D10*
X598350Y935750D02*
X604750Y935750D01*
X611050Y942050D01*
X611050Y954850D01*
X604750Y961150D01*
X591950Y961150D01*
X585650Y954850D01*
X585650Y942050D01*
X591950Y935750D01*
X598350Y935750D01*
G54D10*
X572950Y935750D02*
X579350Y935750D01*
X585650Y942050D01*
X585650Y954850D01*
X579350Y961150D01*
X566550Y961150D01*
X560250Y954850D01*
X560250Y942050D01*
X566550Y935750D01*
X572950Y935750D01*
G54D10*
X598350Y910250D02*
X604750Y910250D01*
X611050Y916550D01*
X611050Y929350D01*
X604750Y935650D01*
X591950Y935650D01*
X585650Y929350D01*
X585650Y916550D01*
X591950Y910250D01*
X598350Y910250D01*
G54D10*
X572950Y910250D02*
X579350Y910250D01*
X585650Y916550D01*
X585650Y929350D01*
X579350Y935650D01*
X566550Y935650D01*
X560250Y929350D01*
X560250Y916550D01*
X566550Y910250D01*
X572950Y910250D01*
M02*
